<?xml version="1.0" encoding="iso-8859-1"?>
<!-- Generator: Adobe Illustrator 19.0.0, SVG Export Plug-In . SVG Version: 6.00 Build 0)  -->
<svg version="1.1" id="Layer_1" xmlns="http://www.w3.org/2000/svg" xmlns:xlink="http://www.w3.org/1999/xlink" x="0px" y="0px"
	 viewBox="0 0 512 512" style="enable-background:new 0 0 512 512;" xml:space="preserve">
<g>
	<path style="fill:#507C5C;" d="M165.321,471.529h-61.383c-23.846,0-43.247-19.4-43.247-43.247v-242.74
		c0-25.697,5.159-50.574,15.334-73.941C105.5,43.809,172.312,0,246.235,0h19.531C339.688,0,406.5,43.809,435.978,111.609
		c10.171,23.36,15.33,48.237,15.33,73.934v123.694c0,7.703-6.246,13.951-13.951,13.951s-13.951-6.247-13.951-13.951V185.543
		c0-21.84-4.379-42.971-13.014-62.803c-25.048-57.614-81.817-94.839-144.627-94.839h-19.531c-62.81,0-119.579,37.224-144.624,94.833
		c-8.638,19.839-13.017,40.969-13.017,62.808v242.74c0,8.461,6.885,15.346,15.346,15.346h61.383c7.705,0,13.951,6.247,13.951,13.951
		C179.272,465.282,173.026,471.529,165.321,471.529z"/>
	<path style="fill:#507C5C;" d="M408.061,471.529H261.58c-7.705,0-13.951-6.247-13.951-13.951c0-7.703,6.246-13.951,13.951-13.951
		h146.481c8.461,0,15.346-6.885,15.346-15.346v-48.827c0-7.704,6.246-13.951,13.951-13.951s13.951,6.247,13.951,13.951v48.827
		C451.308,452.13,431.907,471.529,408.061,471.529z"/>
</g>
<path style="fill:#CFF09E;" d="M423.184,117.172c-26.408,60.741-86.954,103.22-157.418,103.22h-19.531
	c-70.464,0-131.01-42.479-157.418-103.22C115.225,56.431,175.77,13.951,246.235,13.951h19.531
	C336.23,13.951,396.775,56.431,423.184,117.172z"/>
<path style="fill:#507C5C;" d="M265.765,234.342h-19.531c-73.923,0-140.735-43.809-170.212-111.609
	c-1.542-3.548-1.542-7.578,0-11.126C105.5,43.809,172.312,0,246.235,0h19.531C339.688,0,406.5,43.809,435.978,111.609
	c1.542,3.548,1.542,7.578,0,11.126C406.5,190.533,339.688,234.342,265.765,234.342z M104.156,117.171
	c26.205,54.428,81.315,89.27,142.078,89.27h19.531c60.763,0,115.873-34.843,142.078-89.27
	c-26.205-54.427-81.315-89.27-142.078-89.27h-19.531C185.471,27.901,130.361,62.744,104.156,117.171z"/>
<path style="fill:#CFF09E;" d="M132.708,462.355c0,19.712,15.98,35.693,35.693,35.693l0,0c19.712,0,35.693-15.98,35.693-35.693
	V334.348h-71.385L132.708,462.355L132.708,462.355z"/>
<path style="fill:#507C5C;" d="M168.4,512c-27.374,0-49.643-22.271-49.643-49.645V334.348c0-7.704,6.246-13.951,13.951-13.951
	h71.385c7.705,0,13.951,6.247,13.951,13.951v128.008C218.043,489.729,195.774,512,168.4,512z M146.658,348.298v114.057
	c0,11.989,9.754,21.743,21.742,21.743s21.742-9.754,21.742-21.743V348.298H146.658L146.658,348.298z"/>
<rect x="132.71" y="131.13" style="fill:#CFF09E;" width="71.39" height="146.48"/>
<path style="fill:#507C5C;" d="M204.093,291.566h-71.385c-7.705,0-13.951-6.247-13.951-13.951V131.134
	c0-7.704,6.246-13.951,13.951-13.951h71.385c7.705,0,13.951,6.247,13.951,13.951v146.481
	C218.043,285.319,211.798,291.566,204.093,291.566z M146.658,263.664h43.484v-118.58h-43.484L146.658,263.664L146.658,263.664z"/>
<path style="fill:#CFF09E;" d="M307.906,462.355c0,19.712,15.98,35.693,35.693,35.693l0,0c19.712,0,35.693-15.98,35.693-35.693
	V334.348h-71.386V462.355L307.906,462.355L307.906,462.355z"/>
<path style="fill:#507C5C;" d="M343.598,512c-27.374,0-49.643-22.271-49.643-49.645V334.348c0-7.704,6.246-13.951,13.951-13.951
	h71.385c7.705,0,13.951,6.247,13.951,13.951v128.008C393.243,489.729,370.972,512,343.598,512z M321.856,348.298v114.057
	c0,11.989,9.753,21.743,21.742,21.743s21.742-9.754,21.742-21.743V348.298H321.856L321.856,348.298z"/>
<rect x="307.9" y="131.13" style="fill:#CFF09E;" width="71.39" height="146.48"/>
<path style="fill:#507C5C;" d="M379.292,291.566h-71.385c-7.705,0-13.951-6.247-13.951-13.951V131.134
	c0-7.704,6.246-13.951,13.951-13.951h71.385c7.705,0,13.951,6.247,13.951,13.951v146.481
	C393.243,285.319,386.997,291.566,379.292,291.566z M321.856,263.664h43.484v-118.58h-43.484V263.664L321.856,263.664z"/>
<g>
</g>
<g>
</g>
<g>
</g>
<g>
</g>
<g>
</g>
<g>
</g>
<g>
</g>
<g>
</g>
<g>
</g>
<g>
</g>
<g>
</g>
<g>
</g>
<g>
</g>
<g>
</g>
<g>
</g>
</svg>
