<?xml version="1.0" encoding="iso-8859-1"?>
<!-- Generator: Adobe Illustrator 19.0.0, SVG Export Plug-In . SVG Version: 6.00 Build 0)  -->
<svg version="1.1" id="Layer_1" xmlns="http://www.w3.org/2000/svg" xmlns:xlink="http://www.w3.org/1999/xlink" x="0px" y="0px"
	 viewBox="0 0 512 512" style="enable-background:new 0 0 512 512;" xml:space="preserve">
<path style="fill:#507C5C;" d="M59.401,408.521c-7.977,0-14.443-6.468-14.443-14.443V73.841c0-7.975,6.466-14.443,14.443-14.443
	h393.197c7.975,0,14.443,6.468,14.443,14.443v234.287c0,7.975-6.467,14.443-14.443,14.443c-7.975,0-14.443-6.468-14.443-14.443
	V88.284H73.844v305.795C73.844,402.053,67.377,408.521,59.401,408.521z"/>
<path style="fill:#CFF09E;" d="M455.013,103.118H56.987c-22.74,0-41.175-18.435-41.175-41.175V59.2
	c0-22.74,18.435-41.175,41.175-41.175h398.025c22.74,0,41.175,18.435,41.175,41.175v2.743
	C496.186,84.683,477.753,103.118,455.013,103.118z"/>
<g>
	<path style="fill:#507C5C;" d="M455.013,117.561H56.987c-30.667,0-55.617-24.95-55.617-55.618v-2.741
		c0-30.667,24.95-55.618,55.617-55.618h398.025c30.667,0,55.618,24.95,55.618,55.618v2.741
		C510.631,92.611,485.679,117.561,455.013,117.561z M56.987,32.469c-14.74,0-26.731,11.992-26.731,26.732v2.741
		c0,14.74,11.992,26.732,26.731,26.732h398.025c14.74,0,26.732-11.992,26.732-26.732v-2.741c0-14.74-11.992-26.732-26.732-26.732
		H56.987z"/>
	<path style="fill:#507C5C;" d="M497.557,411.405h-19.66c-7.975,0-14.443-6.467-14.443-14.443s6.467-14.443,14.443-14.443h19.66
		c7.975,0,14.443,6.467,14.443,14.443S505.533,411.405,497.557,411.405z"/>
	<path style="fill:#507C5C;" d="M424.531,411.405H14.443C6.466,411.405,0,404.938,0,396.962s6.466-14.443,14.443-14.443h410.088
		c7.975,0,14.443,6.467,14.443,14.443S432.508,411.405,424.531,411.405z"/>
	<path style="fill:#507C5C;" d="M256,452.243c-7.977,0-14.443-6.467-14.443-14.443v-39.393c0-7.975,6.466-14.443,14.443-14.443
		c7.975,0,14.443,6.468,14.443,14.443v39.393C270.443,445.775,263.975,452.243,256,452.243z"/>
</g>
<circle style="fill:#CFF09E;" cx="256" cy="465.88" r="28.09"/>
<g>
	<path style="fill:#507C5C;" d="M256,508.417c-23.452,0-42.531-19.079-42.531-42.53s19.079-42.53,42.531-42.53
		c23.451,0,42.53,19.079,42.53,42.53S279.451,508.417,256,508.417z M256,452.243c-7.523,0-13.646,6.121-13.646,13.644
		s6.121,13.644,13.646,13.644c7.523,0,13.644-6.121,13.644-13.644C269.644,458.363,263.523,452.243,256,452.243z"/>
	<path style="fill:#507C5C;" d="M134.957,311.715c0-0.708,0.235-1.649,0.471-2.59l43.804-143.656
		c2.59-8.243,13.188-12.246,24.02-12.246c10.834,0,21.43,4.002,24.021,12.246l44.039,143.656c0.235,0.94,0.471,1.883,0.471,2.59
		c0,8.713-13.425,15.073-23.551,15.073c-5.887,0-10.598-1.885-12.011-6.829l-8.007-29.439h-49.691l-8.006,29.439
		c-1.413,4.945-6.124,6.829-12.011,6.829C148.379,326.786,134.957,320.428,134.957,311.715z M220.443,262.26l-17.191-63.114
		L186.06,262.26H220.443z"/>
	<path style="fill:#507C5C;" d="M377.043,259.433v56.05c0,6.358-7.536,11.303-17.899,11.303c-9.184,0-16.25-4.947-16.25-11.303
		v-5.181c-8.478,9.891-19.312,18.839-35.795,18.839c-16.25,0-30.144-9.89-30.144-31.321c0-27.79,22.607-35.56,55.107-35.56h8.478
		v-2.354c0-8.007-4.239-17.427-17.662-17.427c-19.312,0-21.195,7.772-27.554,7.772c-8.006,0-12.246-9.655-12.246-18.133
		c0-11.068,22.843-18.839,40.27-18.839C361.972,213.277,377.043,235.647,377.043,259.433z M340.541,279.922H339.6
		c-13.423,0-25.905,1.414-25.905,12.717c0,6.83,3.768,9.891,9.186,9.891c7.299,0,17.662-9.655,17.662-21.666v-0.942L340.541,279.922
		L340.541,279.922z"/>
</g>
<g>
</g>
<g>
</g>
<g>
</g>
<g>
</g>
<g>
</g>
<g>
</g>
<g>
</g>
<g>
</g>
<g>
</g>
<g>
</g>
<g>
</g>
<g>
</g>
<g>
</g>
<g>
</g>
<g>
</g>
</svg>
