<?xml version="1.0" encoding="iso-8859-1"?>
<!-- Generator: Adobe Illustrator 19.0.0, SVG Export Plug-In . SVG Version: 6.00 Build 0)  -->
<svg version="1.1" id="Layer_1" xmlns="http://www.w3.org/2000/svg" xmlns:xlink="http://www.w3.org/1999/xlink" x="0px" y="0px"
	 viewBox="0 0 512 512" style="enable-background:new 0 0 512 512;" xml:space="preserve">
<path style="fill:#507C5C;" d="M371.947,51.63H138.583c-8.106,0-14.677-6.572-14.677-14.677s6.571-14.677,14.677-14.677h233.363
	c8.106,0,14.677,6.572,14.677,14.677S380.053,51.63,371.947,51.63z"/>
<circle style="fill:#CFF09E;" cx="110.579" cy="66.31" r="51.633"/>
<path style="fill:#507C5C;" d="M110.575,132.621c-36.565,0-66.31-29.747-66.31-66.312C44.265,29.747,74.01,0,110.575,0
	s66.31,29.747,66.31,66.31C176.885,102.875,147.139,132.621,110.575,132.621z M110.575,29.354
	c-20.377,0-36.956,16.579-36.956,36.956c0,20.379,16.579,36.958,36.956,36.958s36.956-16.579,36.956-36.958
	C147.531,45.933,130.952,29.354,110.575,29.354z"/>
<circle style="fill:#CFF09E;" cx="395.31" cy="66.31" r="51.633"/>
<g>
	<path style="fill:#507C5C;" d="M395.308,132.621c-36.565,0-66.31-29.747-66.31-66.312C328.997,29.747,358.743,0,395.308,0
		s66.31,29.747,66.31,66.31C461.618,102.875,431.871,132.621,395.308,132.621z M395.308,29.354
		c-20.377,0-36.956,16.579-36.956,36.956c0,20.379,16.579,36.958,36.956,36.958c20.377,0,36.956-16.579,36.956-36.958
		C432.265,45.933,415.686,29.354,395.308,29.354z"/>
	<path style="fill:#507C5C;" d="M450.469,512H61.529c-30.349,0-55.038-24.689-55.038-55.038V155.044
		c0-37.869,30.808-68.678,68.676-68.678h361.661c37.868,0,68.676,30.808,68.676,68.678v156.615c0,8.105-6.571,14.677-14.677,14.677
		s-14.677-6.572-14.677-14.677V155.044c0-21.682-17.64-39.324-39.322-39.324H75.168c-21.682,0-39.322,17.642-39.322,39.324v301.917
		c0,14.162,11.523,25.685,25.685,25.685H450.47c14.162,0,25.685-11.523,25.685-25.685v-70.078c0-8.105,6.571-14.677,14.677-14.677
		s14.677,6.572,14.677,14.677v70.078C505.507,487.309,480.816,512,450.469,512z"/>
</g>
<path style="fill:#CFF09E;" d="M490.829,210.73v-55.687c0-29.824-24.177-54.001-54.001-54.001H75.168
	c-29.824,0-54.001,24.177-54.001,54.001v55.687H490.829z"/>
<path style="fill:#507C5C;" d="M490.829,225.407H21.168c-8.106,0-14.677-6.572-14.677-14.677v-55.686
	c0-37.869,30.808-68.678,68.676-68.678h361.661c37.868,0,68.676,30.808,68.676,68.678v55.686
	C505.507,218.836,498.936,225.407,490.829,225.407z M35.844,196.053h440.308v-41.009c0-21.682-17.64-39.324-39.322-39.324H75.168
	c-21.682,0-39.322,17.642-39.322,39.324v41.009H35.844z"/>
<path style="fill:#CFF09E;" d="M181.758,388.467v12.723c0,9.726-7.886,17.612-17.612,17.612h-56.75
	c-9.726,0-17.612-7.886-17.612-17.612V290.628c0-9.726,7.886-17.612,17.612-17.612h56.748c9.726,0,17.612,7.886,17.612,17.612
	v36.199v61.64L181.758,388.467L181.758,388.467z"/>
<g>
	<path style="fill:#507C5C;" d="M164.145,433.48h-56.748c-17.805,0-32.289-14.485-32.289-32.289V290.628
		c0-17.805,14.485-32.289,32.289-32.289h56.748c17.805,0,32.289,14.485,32.289,32.289v110.563
		C196.434,418.995,181.949,433.48,164.145,433.48z M107.396,287.693c-1.619,0-2.935,1.317-2.935,2.935v110.563
		c0,1.619,1.317,2.935,2.935,2.935h56.748c1.619,0,2.935-1.317,2.935-2.935V290.628c0-1.619-1.317-2.935-2.935-2.935H107.396z"/>
	<path style="fill:#507C5C;" d="M304.796,322.668c-8.106,0-14.677-6.572-14.677-14.677v-19.812h-27.885v19.812
		c0,8.105-6.571,14.677-14.677,14.677s-14.677-6.572-14.677-14.677V285.61c0-14.769,12.016-26.785,26.785-26.785h33.022
		c14.769,0,26.785,12.016,26.785,26.785v22.381C319.473,316.095,312.902,322.668,304.796,322.668z"/>
	<path style="fill:#507C5C;" d="M422.214,322.668c-8.106,0-14.677-6.572-14.677-14.677v-19.812h-27.885v19.812
		c0,8.105-6.571,14.677-14.677,14.677s-14.677-6.572-14.677-14.677V285.61c0-14.769,12.016-26.785,26.785-26.785h33.022
		c14.769,0,26.785,12.016,26.785,26.785v22.381C436.891,316.095,430.32,322.668,422.214,322.668z"/>
	<path style="fill:#507C5C;" d="M304.796,433.48c-8.106,0-14.677-6.572-14.677-14.677v-19.812h-27.885v19.812
		c0,8.105-6.571,14.677-14.677,14.677s-14.677-6.572-14.677-14.677v-22.381c0-14.769,12.016-26.785,26.785-26.785h33.022
		c14.769,0,26.785,12.016,26.785,26.785v22.381C319.473,426.908,312.902,433.48,304.796,433.48z"/>
	<path style="fill:#507C5C;" d="M422.214,433.48c-8.106,0-14.677-6.572-14.677-14.677v-19.812h-27.885v19.812
		c0,8.105-6.571,14.677-14.677,14.677s-14.677-6.572-14.677-14.677v-22.381c0-14.769,12.016-26.785,26.785-26.785h33.022
		c14.769,0,26.785,12.016,26.785,26.785v22.381C436.891,426.908,430.32,433.48,422.214,433.48z"/>
</g>
<g>
</g>
<g>
</g>
<g>
</g>
<g>
</g>
<g>
</g>
<g>
</g>
<g>
</g>
<g>
</g>
<g>
</g>
<g>
</g>
<g>
</g>
<g>
</g>
<g>
</g>
<g>
</g>
<g>
</g>
</svg>
