<?xml version="1.0" encoding="iso-8859-1"?>
<!-- Generator: Adobe Illustrator 19.0.0, SVG Export Plug-In . SVG Version: 6.00 Build 0)  -->
<svg version="1.1" id="Layer_1" xmlns="http://www.w3.org/2000/svg" xmlns:xlink="http://www.w3.org/1999/xlink" x="0px" y="0px"
	 viewBox="0 0 512 512" style="enable-background:new 0 0 512 512;" xml:space="preserve">
<path style="fill:#CFF09E;" d="M256.002,469.85H65.121c-8.109,0-14.683-6.573-14.683-14.683V46.022
	c0-17.308,14.031-31.339,31.339-31.339h142.886c17.308,0,31.339,14.031,31.339,31.339V469.85z"/>
<g>
	<path style="fill:#507C5C;" d="M256.002,484.533H65.121c-16.192,0-29.366-13.173-29.366-29.366V46.022
		C35.756,20.646,56.401,0,81.777,0h142.884c25.376,0,46.022,20.646,46.022,46.022V469.85
		C270.684,477.958,264.112,484.533,256.002,484.533z M81.777,29.366c-9.184,0-16.656,7.472-16.656,16.656v409.145h176.198V46.022
		c0-9.184-7.472-16.656-16.656-16.656H81.777z"/>
	<path style="fill:#507C5C;" d="M199.716,99.414h-92.991c-8.109,0-14.683-6.575-14.683-14.683s6.573-14.683,14.683-14.683h92.991
		c8.109,0,14.683,6.575,14.683,14.683S207.825,99.414,199.716,99.414z"/>
	<path style="fill:#507C5C;" d="M199.716,161.078h-92.991c-8.109,0-14.683-6.575-14.683-14.683s6.573-14.683,14.683-14.683h92.991
		c8.109,0,14.683,6.575,14.683,14.683C214.398,154.503,207.825,161.078,199.716,161.078z"/>
	<path style="fill:#507C5C;" d="M199.716,410.689h-92.991c-8.109,0-14.683-6.575-14.683-14.683s6.573-14.683,14.683-14.683h92.991
		c8.109,0,14.683,6.575,14.683,14.683S207.825,410.689,199.716,410.689z"/>
	<path style="fill:#507C5C;" d="M106.725,270.713c-8.109,0-14.683-6.575-14.683-14.683v-18.596c0-8.108,6.573-14.683,14.683-14.683
		s14.683,6.575,14.683,14.683v18.596C121.408,264.138,114.834,270.713,106.725,270.713z"/>
	<path style="fill:#507C5C;" d="M73.198,512c-8.109,0-14.683-6.575-14.683-14.683V470.89c0-8.108,6.573-14.683,14.683-14.683
		s14.683,6.575,14.683,14.683v26.428C87.881,505.425,81.308,512,73.198,512z"/>
	<path style="fill:#507C5C;" d="M233.241,512c-8.109,0-14.683-6.575-14.683-14.683V470.89c0-8.108,6.574-14.683,14.683-14.683
		s14.683,6.575,14.683,14.683v26.428C247.924,505.425,241.35,512,233.241,512z"/>
	<path style="fill:#507C5C;" d="M446.879,484.533H255.998c-8.109,0-14.683-6.575-14.683-14.683V46.022
		C241.315,20.646,261.96,0,287.337,0h142.884c25.376,0,46.023,20.646,46.023,46.022V317.67c0,8.108-6.575,14.683-14.683,14.683
		c-8.108,0-14.683-6.575-14.683-14.683V46.022c0-9.184-7.472-16.656-16.658-16.656H287.337c-9.184,0-16.656,7.472-16.656,16.656
		v409.145h176.198v-58.22c0-8.108,6.575-14.683,14.683-14.683c8.108,0,14.683,6.575,14.683,14.683v58.22
		C476.244,471.359,463.072,484.533,446.879,484.533z"/>
	<path style="fill:#507C5C;" d="M405.275,99.414h-92.992c-8.108,0-14.683-6.575-14.683-14.683s6.575-14.683,14.683-14.683h92.992
		c8.108,0,14.683,6.575,14.683,14.683S413.384,99.414,405.275,99.414z"/>
	<path style="fill:#507C5C;" d="M405.275,161.078h-92.992c-8.108,0-14.683-6.575-14.683-14.683s6.575-14.683,14.683-14.683h92.992
		c8.108,0,14.683,6.575,14.683,14.683S413.384,161.078,405.275,161.078z"/>
	<path style="fill:#507C5C;" d="M405.275,410.689h-92.992c-8.108,0-14.683-6.575-14.683-14.683s6.575-14.683,14.683-14.683h92.992
		c8.108,0,14.683,6.575,14.683,14.683S413.384,410.689,405.275,410.689z"/>
	<path style="fill:#507C5C;" d="M312.283,270.713c-8.108,0-14.683-6.575-14.683-14.683v-18.596c0-8.108,6.575-14.683,14.683-14.683
		c8.108,0,14.683,6.575,14.683,14.683v18.596C326.966,264.138,320.392,270.713,312.283,270.713z"/>
	<path style="fill:#507C5C;" d="M278.758,512c-8.108,0-14.683-6.575-14.683-14.683V470.89c0-8.108,6.575-14.683,14.683-14.683
		c8.108,0,14.683,6.575,14.683,14.683v26.428C293.44,505.425,286.867,512,278.758,512z"/>
	<path style="fill:#507C5C;" d="M438.8,512c-8.108,0-14.683-6.575-14.683-14.683V470.89c0-8.108,6.575-14.683,14.683-14.683
		c8.108,0,14.683,6.575,14.683,14.683v26.428C453.483,505.425,446.91,512,438.8,512z"/>
</g>
<g>
</g>
<g>
</g>
<g>
</g>
<g>
</g>
<g>
</g>
<g>
</g>
<g>
</g>
<g>
</g>
<g>
</g>
<g>
</g>
<g>
</g>
<g>
</g>
<g>
</g>
<g>
</g>
<g>
</g>
</svg>
