<?xml version="1.0" encoding="iso-8859-1"?>
<!-- Generator: Adobe Illustrator 19.0.0, SVG Export Plug-In . SVG Version: 6.00 Build 0)  -->
<svg version="1.1" id="Layer_1" xmlns="http://www.w3.org/2000/svg" xmlns:xlink="http://www.w3.org/1999/xlink" x="0px" y="0px"
	 viewBox="0 0 512 512" style="enable-background:new 0 0 512 512;" xml:space="preserve">
<path style="fill:#CFF09E;" d="M302.253,411.832l-55.929-288.636c-1.757-9.795-10.278-16.925-20.219-16.925h-51.771
	c-9.941,0-18.463,7.13-20.219,16.925l-21.523,111.068h29.312c13.075,0,23.675,10.6,23.675,23.675v8.785
	c0,13.075-10.6,23.66-23.675,23.66h-40.19L98.185,411.832c-1.362,7.643,1.684,15.402,7.906,20.073l81.8,61.346
	c7.306,5.476,17.35,5.476,24.656,0l81.8-61.346C300.569,427.235,303.615,419.475,302.253,411.832z"/>
<g>
	<path style="fill:#507C5C;" d="M229.134,120.911h-57.83c-18.568,0-33.675-15.107-33.675-33.675V33.675
		C137.629,15.107,152.736,0,171.304,0h57.83c18.568,0,33.675,15.107,33.675,33.675V47.59c0,8.086-6.555,14.641-14.641,14.641
		s-14.641-6.555-14.641-14.641V33.675c0-2.422-1.971-4.392-4.392-4.392h-57.83c-2.422,0-4.392,1.971-4.392,4.392v53.562
		c0,2.422,1.971,4.392,4.392,4.392h57.83c8.086,0,14.641,6.555,14.641,14.641S237.22,120.911,229.134,120.911z"/>
	<path style="fill:#507C5C;" d="M348.128,355.477c-7.168,0-13.432-5.269-14.476-12.572c-1.143-8.004,4.419-15.422,12.423-16.564
		l45.821-6.546l7.546-52.824l-91.529-74.676c-6.265-5.113-7.201-14.335-2.089-20.6c5.113-6.266,14.335-7.201,20.6-2.089
		l91.944,75.015c7.649,6.237,11.533,16.183,10.138,25.954l-7.725,54.073c-1.769,12.381-11.651,22.263-24.032,24.033l-46.535,6.647
		C349.516,355.429,348.818,355.477,348.128,355.477z"/>
	<path style="fill:#507C5C;" d="M200.219,512c-7.672,0-14.972-2.432-21.11-7.034l-81.803-61.348
		c-10.697-8.028-15.881-21.192-13.536-34.354c0.013-0.072,0.026-0.145,0.04-0.215l55.915-288.552
		c3.057-16.735,17.594-28.867,34.61-28.867h51.771c17.016,0,31.552,12.133,34.61,28.867l55.913,288.551
		c0.015,0.072,0.028,0.145,0.04,0.217c2.347,13.164-2.839,26.326-13.531,34.351l-81.805,61.349
		C215.191,509.568,207.891,512,200.219,512z M112.586,414.478c-0.363,2.196,0.512,4.381,2.294,5.717l81.796,61.344
		c1.3,0.974,2.644,1.179,3.543,1.179s2.243-0.205,3.546-1.182l81.797-61.344c1.776-1.334,2.652-3.518,2.29-5.713l-55.901-288.498
		c-0.013-0.067-0.026-0.133-0.037-0.201c-0.507-2.821-2.949-4.868-5.808-4.868h-51.771c-2.859,0-5.303,2.048-5.808,4.87
		c-0.012,0.067-0.025,0.133-0.037,0.201L112.586,414.478z"/>
	<path style="fill:#507C5C;" d="M161.903,305.025h-40.19c-4.37,0-8.514-1.953-11.296-5.325c-2.78-3.372-3.909-7.811-3.079-12.102
		l10.878-56.12c1.335-6.884,7.362-11.855,14.373-11.855h29.312c21.127,0,38.316,17.189,38.316,38.316v8.785
		C200.219,287.844,183.032,305.025,161.903,305.025z M139.465,275.743h22.439c4.981,0,9.034-4.045,9.034-9.019v-8.785
		c0-4.981-4.053-9.034-9.034-9.034h-17.237L139.465,275.743z"/>
</g>
<g>
</g>
<g>
</g>
<g>
</g>
<g>
</g>
<g>
</g>
<g>
</g>
<g>
</g>
<g>
</g>
<g>
</g>
<g>
</g>
<g>
</g>
<g>
</g>
<g>
</g>
<g>
</g>
<g>
</g>
</svg>
